<?xml version="1.0" encoding="utf-8"?>
<!-- Generator: Adobe Illustrator 23.0.4, SVG Export Plug-In . SVG Version: 6.00 Build 0)  -->
<svg version="1.1" id="Capa_1" xmlns="http://www.w3.org/2000/svg" xmlns:xlink="http://www.w3.org/1999/xlink" x="0px" y="0px"
	 viewBox="0 0 493.8 493.8" style="enable-background:new 0 0 493.8 493.8;" xml:space="preserve">
<style type="text/css">
	.st0{fill:#FFFFFF;stroke:#FFFFFF;stroke-miterlimit:10;}
</style>
<path class="st0" d="M423.2,0c-27.9,0-50.6,22.6-50.6,50.6c0,7.4,1.7,14.3,4.5,20.6L257.2,183.7c-12.5-8.6-27.6-13.7-44-13.7
	c-14.8,0-28.4,4.4-40.2,11.5l-57.4-60.3c3.5-6.9,5.6-14.5,5.6-22.7c0-27.9-22.6-50.6-50.6-50.6c-27.9,0-50.6,22.6-50.6,50.6
	c0,27.9,22.7,50.6,50.6,50.6c7.7,0,14.9-1.8,21.4-4.9l57,59.8c-8.4,12.4-13.4,27.4-13.4,43.5c0,32.6,20.1,60.3,48.5,71.9l-12.7,74
	c-24,3.9-42.4,24.6-42.4,49.8c0,27.9,22.6,50.6,50.6,50.6c27.9,0,50.6-22.6,50.6-50.6c0-19.1-10.7-35.5-26.3-44.1l12.8-74.2
	c41.2-1.8,74.2-35.6,74.2-77.3c0-14.6-4.3-28-11.2-39.7L399.7,95.2c7,3.7,14.9,6,23.4,6c28,0,50.6-22.6,50.6-50.6
	C473.7,22.6,451.1,0,423.2,0z"/>
</svg>
