<svg xmlns="http://www.w3.org/2000/svg" viewBox="0 0 128 128" width="64" height="64"><circle cx="64" cy="64" r="50" fill="#fff"/><path d="M64 117c-29.2 0-53-23.8-53-53s23.8-53 53-53 53 23.8 53 53-23.8 53-53 53zm0-100c-25.9 0-47 21.1-47 47s21.1 47 47 47 47-21.1 47-47-21.1-47-47-47z" fill="#444b54"/><path d="M86.5 52h-45c-1.7 0-3-1.3-3-3s1.3-3 3-3h45c1.7 0 3 1.3 3 3s-1.3 3-3 3zM86.5 67h-45c-1.7 0-3-1.3-3-3s1.3-3 3-3h45c1.7 0 3 1.3 3 3s-1.3 3-3 3z" fill="#444b54"/><g><path d="M86.5 82h-45c-1.7 0-3-1.3-3-3s1.3-3 3-3h45c1.7 0 3 1.3 3 3s-1.3 3-3 3z" fill="#444b54"/></g></svg>